<svg width="20" height="20" viewBox="0 0 20 20" fill="none" xmlns="http://www.w3.org/2000/svg">
<path d="M10 10V1L14.912 2.914C15.1919 3.02302 15.438 3.20427 15.625 3.4393C15.8121 3.67432 15.9336 3.95472 15.9771 4.25196C16.0206 4.5492 15.9846 4.85265 15.8727 5.13143C15.7607 5.4102 15.5769 5.65435 15.34 5.839L10 10ZM10 10H19L17.086 14.912C16.977 15.1919 16.7957 15.438 16.5607 15.625C16.3257 15.8121 16.0453 15.9336 15.748 15.9771C15.4508 16.0206 15.1473 15.9846 14.8686 15.8727C14.5898 15.7607 14.3457 15.5769 14.161 15.34L10 10ZM10 10H1L2.914 5.088C3.02302 4.80808 3.20427 4.56205 3.4393 4.37495C3.67432 4.18785 3.95472 4.06638 4.25196 4.02288C4.5492 3.97939 4.85265 4.01544 5.13143 4.12735C5.4102 4.23927 5.65435 4.42305 5.839 4.66L10 10ZM10 10V19L5.088 17.086C4.80808 16.977 4.56205 16.7957 4.37495 16.5607C4.18785 16.3257 4.06638 16.0453 4.02288 15.748C3.97939 15.4508 4.01544 15.1473 4.12735 14.8686C4.23927 14.5898 4.42305 14.3457 4.66 14.161L10 10Z" stroke="black" stroke-width="2" stroke-linecap="round" stroke-linejoin="round"/>
</svg>
