<svg width="16" height="21" viewBox="0 0 16 21" fill="none" xmlns="http://www.w3.org/2000/svg">
<path d="M6 15V20M6 15H10M6 15L5 8M10 15V20M10 15L11 8M5 8H11M5 8C3.66667 8 2.33333 8.66667 1 10M11 8C12.3333 8 13.6667 8.66667 15 10M6 3C6 3.53043 6.21071 4.03914 6.58579 4.41421C6.96086 4.78929 7.46957 5 8 5C8.53043 5 9.03914 4.78929 9.41421 4.41421C9.78929 4.03914 10 3.53043 10 3C10 2.46957 9.78929 1.96086 9.41421 1.58579C9.03914 1.21071 8.53043 1 8 1C7.46957 1 6.96086 1.21071 6.58579 1.58579C6.21071 1.96086 6 2.46957 6 3Z" stroke="black" stroke-width="2" stroke-linecap="round" stroke-linejoin="round"/>
</svg>
