<svg width="24" height="24" viewBox="0 0 24 24" fill="none" xmlns="http://www.w3.org/2000/svg">
<path d="M10.376 9.17597C10.4318 9.12019 10.4979 9.07593 10.5708 9.04574C10.6436 9.01554 10.7217 9 10.8005 9C10.8794 9 10.9575 9.01554 11.0303 9.04574C11.1031 9.07593 11.1693 9.12019 11.225 9.17597L13.625 11.576C13.7374 11.6885 13.8005 11.841 13.8005 12C13.8005 12.159 13.7374 12.3115 13.625 12.424L11.225 14.824C11.1694 14.8798 11.1032 14.9241 11.0304 14.9543C10.9576 14.9846 10.8796 15.0002 10.8007 15.0003C10.7219 15.0004 10.6438 14.985 10.571 14.9549C10.4981 14.9248 10.4319 14.8807 10.376 14.825C10.3202 14.7693 10.2759 14.7032 10.2457 14.6304C10.2154 14.5576 10.1998 14.4795 10.1997 14.4007C10.1996 14.3218 10.2151 14.2438 10.2451 14.1709C10.2752 14.098 10.3194 14.0318 10.375 13.976L12.353 12L10.377 10.024C10.2647 9.91147 10.2016 9.75897 10.2016 9.59997C10.2016 9.44097 10.2637 9.28847 10.376 9.17597Z" fill="#666666"/>
</svg>
