<svg width="12" height="7" viewBox="0 0 12 7" fill="none" xmlns="http://www.w3.org/2000/svg">
<path fill-rule="evenodd" clip-rule="evenodd" d="M0.970073 0.469909C1.1107 0.329459 1.30132 0.250569 1.50007 0.250569C1.69882 0.250569 1.88945 0.329459 2.03007 0.469909L6.00007 4.43991L9.97007 0.469909C10.0387 0.396222 10.1215 0.33712 10.2135 0.296128C10.3055 0.255136 10.4048 0.233095 10.5056 0.231318C10.6063 0.229541 10.7063 0.248066 10.7997 0.285787C10.8931 0.323508 10.9779 0.379652 11.0491 0.450871C11.1203 0.52209 11.1765 0.606923 11.2142 0.700312C11.2519 0.7937 11.2704 0.893729 11.2687 0.994432C11.2669 1.09513 11.2448 1.19445 11.2039 1.28645C11.1629 1.37845 11.1038 1.46125 11.0301 1.52991L6.53007 6.02991C6.38945 6.17036 6.19882 6.24925 6.00007 6.24925C5.80132 6.24925 5.6107 6.17036 5.47007 6.02991L0.970073 1.52991C0.829622 1.38928 0.750732 1.19866 0.750732 0.999909C0.750732 0.801159 0.829622 0.610534 0.970073 0.469909Z" fill="#666666"/>
</svg>
