<svg width="15" height="15" viewBox="0 0 15 15" fill="none" xmlns="http://www.w3.org/2000/svg">
<path d="M7.53337 9.55786L3.30583 13.797C3.0382 14.0627 2.6981 14.1955 2.28554 14.1955C1.87298 14.1955 1.53288 14.0627 1.26525 13.797C0.99955 13.5313 0.866699 13.1931 0.866699 12.7825C0.866699 12.3719 0.99955 12.0337 1.26525 11.768L5.50438 7.52887L1.26525 3.33757C0.99955 3.06993 0.866699 2.72984 0.866699 2.31728C0.866699 1.90472 0.99955 1.56462 1.26525 1.29699C1.53095 1.03129 1.86911 0.898438 2.27974 0.898438C2.69037 0.898438 3.02853 1.03129 3.29423 1.29699L7.53337 5.53612L11.7247 1.29699C11.9923 1.03129 12.3324 0.898438 12.745 0.898438C13.1575 0.898438 13.4976 1.03129 13.7652 1.29699C14.0551 1.58684 14.2 1.93129 14.2 2.33032C14.2 2.72936 14.0551 3.06124 13.7652 3.32597L9.52612 7.52887L13.7652 11.7564C14.0309 12.024 14.1638 12.3641 14.1638 12.7767C14.1638 13.1893 14.0309 13.5294 13.7652 13.797C13.4754 14.0868 13.1314 14.2318 12.7334 14.2318C12.3353 14.2318 12.0029 14.0868 11.7363 13.797L7.53337 9.55786Z" fill="black"/>
</svg>
