<svg width="11" height="11" viewBox="0 0 11 11" fill="none" xmlns="http://www.w3.org/2000/svg">
<path d="M5.40039 6.92035L2.22974 10.0997C2.02901 10.299 1.77394 10.3986 1.46452 10.3986C1.1551 10.3986 0.900028 10.299 0.699304 10.0997C0.500028 9.90042 0.400391 9.6468 0.400391 9.33882C0.400391 9.03085 0.500028 8.77723 0.699304 8.57796L3.87865 5.39861L0.699304 2.25513C0.500028 2.0544 0.400391 1.79933 0.400391 1.48991C0.400391 1.18049 0.500028 0.925418 0.699304 0.724694C0.898579 0.525419 1.1522 0.425781 1.46017 0.425781C1.76814 0.425781 2.02177 0.525419 2.22104 0.724694L5.40039 3.90404L8.54387 0.724694C8.74459 0.525419 8.99966 0.425781 9.30908 0.425781C9.6185 0.425781 9.87358 0.525419 10.0743 0.724694C10.2917 0.942085 10.4004 1.20042 10.4004 1.49969C10.4004 1.79897 10.2917 2.04788 10.0743 2.24643L6.89495 5.39861L10.0743 8.56926C10.2736 8.76998 10.3732 9.02506 10.3732 9.33448C10.3732 9.6439 10.2736 9.89897 10.0743 10.0997C9.85691 10.3171 9.59894 10.4258 9.30039 10.4258C9.00184 10.4258 8.75256 10.3171 8.55256 10.0997L5.40039 6.92035Z" fill="black"/>
</svg>
