<svg width="14" height="13" viewBox="0 0 14 13" fill="none" xmlns="http://www.w3.org/2000/svg">
<path d="M4.33333 4.0013H9.66667M4.33333 6.66797H8.33333M11 0.667969C11.5304 0.667969 12.0391 0.878682 12.4142 1.25376C12.7893 1.62883 13 2.13754 13 2.66797V8.0013C13 8.53173 12.7893 9.04044 12.4142 9.41552C12.0391 9.79059 11.5304 10.0013 11 10.0013H7.66667L4.33333 12.0013V10.0013H3C2.46957 10.0013 1.96086 9.79059 1.58579 9.41552C1.21071 9.04044 1 8.53173 1 8.0013V2.66797C1 2.13754 1.21071 1.62883 1.58579 1.25376C1.96086 0.878682 2.46957 0.667969 3 0.667969H11Z" stroke="black" stroke-linecap="round" stroke-linejoin="round"/>
</svg>
